#!OML:ASF E:\emotionWalksFemale\Project 1\Capture day 1\Session 1\Female1.ASF
:FULLY-SPECIFIED
:DEGREES
605
root 9.07351 15.0222 35.317 178.674 -4.05657 -176.58
lowerback 9.50831 0.996281 3.13498
upperback 2.35809 1.45514 1.64195
thorax -2.8389 0.610212 -0.22819
lowerneck -3.01264 -2.60983 -5.35297
upperneck -4.07928 -3.38323 4.86243
head -0.581085 -1.70947 2.4388
rclavicle -3.09359e-014 -4.96962e-015
rhumerus -31.4149 7.88229 -89.9745
rradius 34.8515
rwrist 16.8283
rhand -3.60136 -54.3662
rfingers 7.12502
rthumb 22.1367 -803.119
lclavicle -3.09359e-014 -4.96962e-015
lhumerus -35.0949 3.92483 85.3534
lradius 38.7352
lwrist -12.144
lhand -3.91471 -37.3186
lfingers 7.12502
lthumb 21.8359 -8.53056
rfemur -5.6986 8.83646 34.2608
rtibia 26.2295
rfoot -19.9938 -20.2015
rtoes -0.507525
lfemur -34.0345 -3.26775 -18.1295
ltibia 67.4112
lfoot -13.8068 5.91561
ltoes -19.9851
606
root 9.06809 15.0065 35.2853 178.815 -3.92054 -176.759
lowerback 9.42823 1.03887 2.92313
upperback 2.30315 1.49735 1.62724
thorax -2.8563 0.635256 -0.128847
lowerneck -2.80267 -2.55981 -5.42986
upperneck -4.2973 -3.32201 4.95217
head -0.686716 -1.68198 2.49004
rclavicle 1.07095e-014 2.96189e-014
rhumerus -31.6437 7.80544 -89.9475
rradius 34.8155
rwrist 16.938
rhand -3.25336 -54.7593
rfingers 7.12502
rthumb 22.4708 -803.472
lclavicle 1.07095e-014 2.96189e-014
lhumerus -35.1172 4.22119 85.289
lradius 38.6252
lwrist -12.3677
lhand -4.23799 -37.4133
lfingers 7.12502
lthumb 21.5254 -8.58946
rfemur -5.70928 8.88442 34.0923
rtibia 26.2915
rfoot -20.0471 -19.8128
rtoes 0.998396
lfemur -34.3986 -3.45134 -18.3602
ltibia 66.1799
lfoot -14.8888 5.14854
ltoes -18.0636
607
root 9.06365 15.0014 35.2509 178.843 -3.74405 -176.878
lowerback 9.52548 1.1065 2.77527
upperback 2.27578 1.57953 1.63076
thorax -2.94116 0.676354 -0.0539322
lowerneck -2.89011 -2.57746 -5.25002
upperneck -4.33791 -3.35429 4.66874
head -0.690391 -1.69894 2.36168
rclavicle 9.69075e-015 3.57812e-015
rhumerus -31.8414 7.64021 -89.8708
rradius 34.7623
rwrist 17.0852
rhand -2.91654 -54.8889
rfingers 7.12502
rthumb 22.7941 -803.562
lclavicle 9.69075e-015 3.57812e-015
lhumerus -35.1937 4.14443 85.3366
lradius 38.7396
lwrist -12.2588
lhand -4.73975 -37.3645
lfingers 7.12502
lthumb 21.0434 -8.48623
rfemur -5.67518 8.98753 33.9868
rtibia 26.4808
rfoot -20.4558 -19.3184
rtoes 2.04347
lfemur -34.6241 -3.71599 -18.4994
ltibia 64.9011
lfoot -15.1424 5.91274
ltoes -19.6071
608
root 9.06268 15.0069 35.2126 178.836 -3.5911 -176.82
lowerback 9.53906 1.16201 2.8054
upperback 2.27843 1.65575 1.64794
thorax -2.94394 0.713334 -0.0621538
lowerneck -3.07183 -2.61425 -5.09344
upperneck -4.19718 -3.40381 4.49432
head -0.617778 -1.72254 2.2699
rclavicle 2.00524e-014 1.35174e-014
rhumerus -31.9269 7.36008 -89.8251
rradius 34.6148
rwrist 17.1849
rhand -2.72983 -54.9522
rfingers 7.12502
rthumb 22.9732 -803.603
lclavicle 2.00524e-014 1.35174e-014
lhumerus -35.3368 3.82347 85.3711
lradius 38.9512
lwrist -11.8933
lhand -5.10125 -37.1078
lfingers 7.12502
lthumb 20.6961 -8.19134
rfemur -5.57601 9.17425 34.0979
rtibia 26.6449
rfoot -20.9257 -19.0869
rtoes 2.84752
lfemur -34.7694 -4.01109 -18.3625
ltibia 63.5898
lfoot -15.2198 6.17159
ltoes -20.5268
609
root 9.05683 15.0125 35.173 179.009 -3.41168 -176.801
lowerback 9.29121 1.207 2.91024
upperback 2.25 1.72177 1.6093
thorax -2.8305 0.749709 -0.163878
lowerneck -2.88444 -2.55642 -5.24086
upperneck -4.41932 -3.32629 4.79484
head -0.716607 -1.68784 2.40334
rclavicle 1.75676e-014 -5.1684e-015
rhumerus -32.0292 7.11155 -89.8027
rradius 34.4766
rwrist 17.1502
rhand -2.6775 -54.7329
rfingers 7.12502
rthumb 23.0234 -803.378
lclavicle 1.75676e-014 -5.1684e-015
lhumerus -35.3822 3.68833 85.3034
lradius 38.9729
lwrist -11.6405
lhand -5.125 -36.9645
lfingers 7.12502
lthumb 20.6733 -8.04556
rfemur -5.55631 9.36417 34.1318
rtibia 26.659
rfoot -21.0627 -18.9669
rtoes 3.27126
lfemur -35.0335 -4.23162 -18.2867
ltibia 62.2074
lfoot -15.1658 6.37113
ltoes -21.7926
610
root 9.05177 15.0119 35.1311 179.087 -3.22397 -176.845
lowerback 9.19155 1.24484 2.91167
upperback 2.26874 1.76764 1.5591
thorax -2.75323 0.774414 -0.219449
lowerneck -2.82513 -2.50383 -5.22043
upperneck -4.69204 -3.26231 4.91335
head -0.815032 -1.66256 2.44458
rclavicle -4.37326e-015 -7.95139e-016
rhumerus -32.1005 6.92361 -89.8164
rradius 34.3737
rwrist 17.1646
rhand -2.732 -54.1625
rfingers 7.12502
rthumb 22.9711 -802.814
lclavicle -4.37326e-015 -7.95139e-016
lhumerus -35.3344 3.64214 85.2172
lradius 38.9866
lwrist -11.5172
lhand -5.23043 -37.004
lfingers 7.12502
lthumb 20.572 -8.07403
rfemur -5.37987 9.51461 34.1028
rtibia 26.5541
rfoot -21.1841 -18.8495
rtoes 3.60409
lfemur -35.1273 -4.48776 -18.3135
ltibia 60.7654
lfoot -15.0584 6.83051
ltoes -25.3348
